#!OML:ASF X:\2005_08_12_Meinard\c3d\meinard.ASF
:FULLY-SPECIFIED
:DEGREES
110
root 4.36032 16.982 0.773199 130.12 -85.0379 -147.151
lowerback 28.7473 -1.45387 0.541604
upperback 3.14861 -1.9381 1.00162
thorax -12.3855 -1.02922 1.61205
lowerneck -14.7643 -2.96818 -4.30507
upperneck 7.07365 -3.67035 4.84758
head 4.6851 -1.6201 1.89813
rclavicle 4.66057e-015 1.50828e-014
rhumerus -32.8625 -10.9616 -23.948
rradius 25.6146
rwrist 21.4434
rhand -14.5591 4.23718
rfingers 7.12502
rthumb 11.5899 -25.4223
lclavicle 4.66057e-015 1.50828e-014
lhumerus -56.8071 52.9192 -18.6689
lradius 10.8633
lwrist -61.6181
lhand -22.3716 -12.5308
lfingers 7.12502
lthumb 4.04991 17.4104
rfemur 17.552 1.80516 13.7893
rtibia 16.2931
rfoot -15.221 -3.83584
rtoes -20.5691
lfemur 11.7264 -8.94701 -14.0994
ltibia 28.7735
lfoot -21.4296 13.6988
ltoes -22.5137
111
root 4.36294 16.9842 0.762932 130.208 -84.9434 -147.231
lowerback 28.7944 -1.44768 0.559627
upperback 3.16362 -1.92188 1.03601
thorax -12.3921 -1.02265 1.63629
lowerneck -14.5586 -2.98307 -4.35014
upperneck 6.90952 -3.68893 4.89323
head 4.60371 -1.63146 1.92044
rclavicle 7.94828e-015 -3.40419e-014
rhumerus -33.6986 -10.398 -25.3448
rradius 26.572
rwrist 21.0134
rhand -14.6277 4.54542
rfingers 7.12502
rthumb 11.5238 -25.1178
lclavicle 7.94828e-015 -3.40419e-014
lhumerus -54.5452 50.6773 -14.0441
lradius 11.1219
lwrist -58.6234
lhand -22.1774 -12.9923
lfingers 7.12502
lthumb 4.23743 16.9453
rfemur 17.4875 1.83653 13.8972
rtibia 16.3471
rfoot -15.226 -3.82052
rtoes -20.5184
lfemur 11.7313 -8.79283 -13.932
ltibia 28.7336
lfoot -21.3748 13.5879
ltoes -22.6242
112
root 4.36557 16.9843 0.753281 130.344 -84.859 -147.354
lowerback 28.8112 -1.44625 0.585723
upperback 3.20294 -1.91241 1.06145
thorax -12.3548 -1.021 1.64644
lowerneck -14.4227 -2.99704 -4.37183
upperneck 6.75096 -3.70799 4.93246
head 4.53483 -1.64201 1.93629
rclavicle 4.48974e-015 9.26834e-015
rhumerus -34.5293 -10.0212 -26.7535
rradius 27.4739
rwrist 20.8022
rhand -14.8059 4.87134
rfingers 7.12502
rthumb 11.3519 -24.8014
lclavicle 4.48974e-015 9.26834e-015
lhumerus -52.255 48.1055 -9.15675
lradius 11.4041
lwrist -55.1666
lhand -21.9323 -13.4791
lfingers 7.12502
lthumb 4.47414 16.4536
rfemur 17.4156 1.75448 13.9437
rtibia 16.3966
rfoot -15.2259 -3.68345
rtoes -20.5201
lfemur 11.7392 -8.69677 -13.7997
ltibia 28.6946
lfoot -21.3521 13.5183
ltoes -22.7027
113
root 4.36812 16.9846 0.742444 130.631 -84.7881 -147.627
lowerback 28.8504 -1.44231 0.579813
upperback 3.21289 -1.90673 1.09135
thorax -12.3624 -1.01793 1.68324
lowerneck -14.22 -3.00741 -4.4084
upperneck 6.58418 -3.72082 4.96698
head 4.45262 -1.65107 1.95431
rclavicle 1.64619e-016 -8.19987e-015
rhumerus -35.3538 -9.69655 -28.1486
rradius 28.2999
rwrist 20.8549
rhand -14.9122 5.17913
rfingers 7.12502
rthumb 11.2495 -24.4992
lclavicle 1.64619e-016 -8.19987e-015
lhumerus -50.31 45.3415 -4.43338
lradius 11.7571
lwrist -51.5831
lhand -21.6591 -13.9475
lfingers 7.12502
lthumb 4.73792 15.9795
rfemur 17.3443 1.72481 13.9922
rtibia 16.4491
rfoot -15.2228 -3.60361
rtoes -20.4872
lfemur 11.7467 -8.60744 -13.694
ltibia 28.6548
lfoot -21.3194 13.4774
ltoes -22.7636
114
root 4.3708 16.9857 0.730963 130.787 -84.7143 -147.759
lowerback 28.8758 -1.43993 0.603768
upperback 3.22298 -1.89475 1.11213
thorax -12.364 -1.01372 1.68936
lowerneck -14.0072 -3.02404 -4.41687
upperneck 6.39253 -3.74593 4.99085
head 4.36105 -1.66647 1.96371
rclavicle 1.5471e-014 1.02374e-014
rhumerus -36.1752 -9.46386 -29.55
rradius 29.0688
rwrist 21.0529
rhand -15.0107 5.43073
rfingers 7.12502
rthumb 11.1545 -24.2528
lclavicle 1.5471e-014 1.02374e-014
lhumerus -48.4607 42.2918 0.393286
lradius 12.1854
lwrist -47.6123
lhand -21.3487 -14.37
lfingers 7.12502
lthumb 5.03767 15.5501
rfemur 17.2524 1.68189 14.0531
rtibia 16.5102
rfoot -15.2151 -3.52461
rtoes -20.457
lfemur 11.7457 -8.55767 -13.5827
ltibia 28.6101
lfoot -21.2967 13.4484
ltoes -22.7625
115
root 4.37256 16.9855 0.719084 130.933 -84.6273 -147.91
lowerback 28.9254 -1.43364 0.612897
upperback 3.24159 -1.8809 1.15189
thorax -12.367 -1.00788 1.72584
lowerneck -13.8725 -3.03865 -4.4622
upperneck 6.28741 -3.76312 5.03275
head 4.30953 -1.67617 1.9843
rclavicle 2.98084e-014 2.1419e-014
rhumerus -36.9331 -9.41614 -30.8632
rradius 29.7202
rwrist 21.6383
rhand -14.989 5.7066
rfingers 7.12502
rthumb 11.1754 -23.9758
lclavicle 2.98084e-014 2.1419e-014
lhumerus -47.2132 39.4805 4.65071
lradius 12.6702
lwrist -43.9914
lhand -21.0242 -14.7387
lfingers 7.12502
lthumb 5.35099 15.1737
rfemur 17.2 1.63514 14.1169
rtibia 16.5699
rfoot -15.2173 -3.40128
rtoes -20.4465
lfemur 11.7814 -8.45865 -13.4507
ltibia 28.5635
lfoot -21.2501 13.3926
ltoes -22.8294
116
root 4.37548 16.9875 0.706377 131.068 -84.5623 -148.008
lowerback 28.9433 -1.43316 0.641307
upperback 3.24655 -1.87026 1.16635
thorax -12.3711 -1.00441 1.7225
lowerneck -13.7304 -3.06048 -4.45697
upperneck 6.1545 -3.79755 5.06201
head 4.24793 -1.69426 1.99164
rclavicle 2.22452e-014 8.05078e-015
rhumerus -37.6728 -9.30527 -32.2481
rradius 30.2466
rwrist 22.1768
rhand -14.9475 5.94866
rfingers 7.12502
rthumb 11.2154 -23.7315
lclavicle 2.22452e-014 8.05078e-015
lhumerus -46.3898 37.0561 8.35845
lradius 13.1992
lwrist -40.8617
lhand -20.6751 -15.0463
lfingers 7.12502
lthumb 5.68808 14.8573
rfemur 17.0942 1.55478 14.1649
rtibia 16.6328
rfoot -15.2061 -3.2946
rtoes -20.4172
lfemur 11.7635 -8.38753 -13.3234
ltibia 28.5129
lfoot -21.231 13.3321
ltoes -22.823
117
root 4.37941 16.9885 0.693139 131.117 -84.4595 -148.034
lowerback 28.9861 -1.42323 0.692138
upperback 3.25326 -1.83793 1.20221
thorax -12.3863 -0.991765 1.72333
lowerneck -13.6341 -3.09568 -4.47554
upperneck 6.05943 -3.84363 5.0792
head 4.20611 -1.71845 1.99759
rclavicle 6.48535e-015 1.63997e-015
rhumerus -38.4029 -9.13581 -33.6189
rradius 30.7302
rwrist 22.7278
rhand -14.8238 6.23109
rfingers 7.12502
rthumb 11.3347 -23.4426
lclavicle 6.48535e-015 1.63997e-015
lhumerus -45.8225 34.8535 11.798
lradius 13.7834
lwrist -37.948
lhand -20.2767 -15.3055
lfingers 7.12502
lthumb 6.07272 14.5874
rfemur 16.9959 1.50001 14.2546
rtibia 16.6943
rfoot -15.192 -3.17918
rtoes -20.3758
lfemur 11.7698 -8.36102 -13.1953
ltibia 28.4668
lfoot -21.2015 13.3713
ltoes -22.9599
118
root 4.38274 16.9892 0.679074 131.267 -84.4222 -148.183
lowerback 29.0461 -1.41998 0.693164
upperback 3.26054 -1.83125 1.22637
thorax -12.4082 -0.988564 1.75001
lowerneck -13.5469 -3.12298 -4.51723
upperneck 5.97289 -3.87673 5.11414
head 4.16863 -1.73562 2.01371
rclavicle -1.26632e-014 -1.03368e-014
rhumerus -39.0994 -9.05648 -34.9499
rradius 31.1387
rwrist 23.3624
rhand -14.616 6.55794
rfingers 7.12502
rthumb 11.5351 -23.1047
lclavicle -1.26632e-014 -1.03368e-014
lhumerus -45.5536 32.981 14.8323
lradius 14.4159
lwrist -35.4951
lhand -19.8382 -15.5001
lfingers 7.12502
lthumb 6.49598 14.3803
rfemur 16.9386 1.39925 14.2761
rtibia 16.7565
rfoot -15.2057 -3.05963
rtoes -20.3317
lfemur 11.7929 -8.32154 -13.1029
ltibia 28.4168
lfoot -21.1759 13.3218
ltoes -22.9535
119
root 4.38597 16.9888 0.663736 131.254 -84.3568 -148.161
lowerback 29.0875 -1.41359 0.737435
upperback 3.27135 -1.80768 1.24638
thorax -12.4181 -0.980137 1.73961
lowerneck -13.4716 -3.16075 -4.51867
upperneck 5.88888 -3.929 5.13136
head 4.13366 -1.76215 2.01625
rclavicle 5.14355e-015 1.48592e-014
rhumerus -39.8012 -9.18751 -36.2172
rradius 31.5138
rwrist 24.0966
rhand -14.2663 6.86781
rfingers 7.12502
rthumb 11.8724 -22.7756
lclavicle 5.14355e-015 1.48592e-014
lhumerus -45.4081 31.4187 17.5824
lradius 15.0529
lwrist -33.4418
lhand -19.3406 -15.6766
lfingers 7.12502
lthumb 6.97638 14.1884
rfemur 16.8694 1.35163 14.3566
rtibia 16.8183
rfoot -15.2079 -2.98861
rtoes -20.2486
lfemur 11.804 -8.28366 -12.9762
ltibia 28.3727
lfoot -21.134 13.2974
ltoes -22.9005
120
root 4.38881 16.9899 0.648133 131.082 -84.297 -147.978
lowerback 29.1375 -1.41552 0.81045
upperback 3.26791 -1.78551 1.25778
thorax -12.4502 -0.973328 1.70389
lowerneck -13.3734 -3.20282 -4.50593
upperneck 5.80455 -3.98789 5.12489
head 4.09443 -1.79322 2.00899
rclavicle -9.88333e-015 3.13086e-015
rhumerus -40.5107 -9.40318 -37.4321
rradius 31.8121
rwrist 24.8479
rhand -13.849 7.21337
rfingers 7.12502
rthumb 12.2747 -22.4064
lclavicle -9.88333e-015 3.13086e-015
lhumerus -45.3919 30.0754 20.087
lradius 15.7484
lwrist -31.6678
lhand -18.7761 -15.8533
lfingers 7.12502
lthumb 7.52127 13.993
rfemur 16.7929 1.19491 14.4083
rtibia 16.8804
rfoot -15.192 -2.81445
rtoes -20.2184
lfemur 11.8232 -8.31658 -12.8628
ltibia 28.3282
lfoot -21.1275 13.3047
ltoes -22.956
